<?xml version="1.0" standalone="no"?><!DOCTYPE svg PUBLIC "-//W3C//DTD SVG 1.1//EN" "http://www.w3.org/Graphics/SVG/1.1/DTD/svg11.dtd"><svg t="1502356528965" class="icon" style="" viewBox="0 0 1024 1024" version="1.1" xmlns="http://www.w3.org/2000/svg" p-id="1038" xmlns:xlink="http://www.w3.org/1999/xlink" width="200" height="200"><defs><style type="text/css"></style></defs><path d="M447.5 960.3l-321-110v-642l321 82z" fill="#e96462" p-id="1039"></path><path d="M447.5 960.3l450-240v-600l-450 170z" fill="#e96462" p-id="1040"></path><path d="M126.5 208.3l321 82 450-170-344.4-56.6z" fill="#e96462" p-id="1041"></path><path d="M400.3 348.9v80l-239-60v-80l239 60z m-239 48.3l239 60v-10l-239-60v10z m0 23l239 60v-10l-239-60v10z m0 23l239 60v-10l-239-60v10z" fill="#e96462" p-id="1042"></path><path d="M175.7 308.4v34l210.2 53v-34zM175.7 363.4l210.2 53v-13.3l-210.2-53z" fill="#e96462" p-id="1043"></path><path d="M447.5 894.1v-5.2l-174.4-55.3-1.2 4.8zM271.9 809.3L447.5 864v-5.3l-174.4-54.3zM271.9 780.1l175.6 53.7v-5.2l-174.4-53.4zM447.5 707.9l-174.4-49.3-1.2 4.8 175.6 49.7zM271.9 692.6l175.6 50.7v-5.2l-174.4-50.4zM271.9 750.9l175.6 52.7v-5.2l-174.4-52.3zM271.9 721.8l175.6 51.7v-5.3l-174.4-51.3z" fill="#e96462" p-id="1044"></path><path d="M379.5 540.8c-9.4-3.4-17 1.6-17 11.2s7.6 20.1 17 23.2 17-1.9 17-11.2-7.6-19.8-17-23.2zM379.5 603.6c-3.9-1.2-7 1-7 4.9s3.1 8.1 7 9.3 7-1 7-4.9c0-3.9-3.1-8-7-9.3z" fill="#e96462" p-id="1045"></path></svg>