<?xml version="1.0" standalone="no"?><!DOCTYPE svg PUBLIC "-//W3C//DTD SVG 1.1//EN" "http://www.w3.org/Graphics/SVG/1.1/DTD/svg11.dtd"><svg t="1501812236953" class="icon" style="" viewBox="0 0 1024 1024" version="1.1" xmlns="http://www.w3.org/2000/svg" p-id="2637" xmlns:xlink="http://www.w3.org/1999/xlink" width="200" height="200"><defs><style type="text/css"></style></defs><path d="M489.572 796.115c-145.781-18.35-255.737-143.306-255.737-290.397 0-146.801 109.518-271.611 254.862-290.397 10.923-1.456 19.078-10.631 19.078-21.699v-140.539c0-6.116-2.622-11.942-7.136-16.165-4.515-4.078-10.631-6.116-16.748-5.68-118.111 10.485-227.483 64.516-308.019 152.044-80.974 88.11-125.538 202.579-125.538 322.437 0 120.003 44.71 234.619 125.974 322.729 80.828 87.673 190.346 141.557 308.602 151.753 0.582 0 1.311 0.146 1.893 0.146 5.389 0 10.777-2.038 14.709-5.68 4.515-4.078 7.136-10.049 7.136-16.165v-140.539c0-11.214-8.156-20.534-19.078-21.845zM464.96 933.887c-209.861-30.146-370.933-213.793-370.933-428.169 0-217.725 157.433-397.731 370.060-428.022v97.43c-72.963 13.69-139.664 51.555-189.472 107.625-54.467 61.458-84.468 140.684-84.468 222.969 0 162.675 116.945 301.612 274.96 330.884v97.284zM974.393 561.058h-142.723c-10.049 0-18.787 6.845-21.117 16.457-29.855 118.402-131.654 206.511-252.969 219.327-11.069 1.165-19.515 10.485-19.515 21.699v140.393c0 6.116 2.476 11.796 6.991 16.020 4.078 3.787 9.321 5.825 14.854 5.825h1.602c53.885-3.932 106.169-16.748 155.539-38.302 47.914-20.826 91.75-49.371 130.49-84.759 78.061-71.216 130.926-167.481 148.694-271.173 1.020-6.407-0.729-12.816-4.806-17.767-4.515-4.951-10.631-7.718-17.039-7.718zM581.468 934.761v-97.139c125.247-20.681 229.23-111.411 266.659-232.871h99.469c-40.924 175.927-186.705 307.437-366.128 330.011zM582.051 28.179c-9.321-1.165-17.622 6.116-17.622 15.583v158.742c0 7.573 5.389 13.981 12.67 15.438 131.363 25.341 231.561 137.772 238.551 274.814 0.437 8.447 7.282 15.001 15.729 15.001h156.849c8.884 0 16.020-7.427 15.729-16.311-7.865-238.697-189.035-433.702-421.906-463.267z" p-id="2638" fill="#8a8a8a"></path></svg>