<?xml version="1.0" standalone="no"?><!DOCTYPE svg PUBLIC "-//W3C//DTD SVG 1.1//EN" "http://www.w3.org/Graphics/SVG/1.1/DTD/svg11.dtd"><svg t="1501822270676" class="icon" style="" viewBox="0 0 1024 1024" version="1.1" xmlns="http://www.w3.org/2000/svg" p-id="4838" xmlns:xlink="http://www.w3.org/1999/xlink" width="200" height="200"><defs><style type="text/css"></style></defs><path d="M341.784 354.576H167.92a21.728 21.728 0 0 0-21.728 21.736v480.84a21.736 21.736 0 0 0 21.728 21.728h173.864a21.744 21.744 0 0 0 21.728-21.728V376.312c0-12-9.736-21.736-21.728-21.736z m0.4 502.976H167.688V376.08h174.496v481.472zM599.176 502.64H425.32a21.728 21.728 0 0 0-21.728 21.736v332.784a21.736 21.736 0 0 0 21.728 21.728h173.864c12 0 21.736-9.744 21.736-21.728V524.376a21.744 21.744 0 0 0-21.744-21.736z m0.408 354.912H425.088V523h174.496v334.552zM856.576 144.04H682.72a21.736 21.736 0 0 0-21.736 21.736v691.376a21.744 21.744 0 0 0 21.736 21.728h173.856c12 0 21.728-9.744 21.728-21.728V165.776c0-12-9.728-21.736-21.728-21.736z m0.408 713.512H681.984V166.456h175v691.096z" p-id="4839" fill="#8a8a8a"></path></svg>