<?xml version="1.0" standalone="no"?><!DOCTYPE svg PUBLIC "-//W3C//DTD SVG 1.1//EN" "http://www.w3.org/Graphics/SVG/1.1/DTD/svg11.dtd"><svg t="1501748854978" class="icon" style="" viewBox="0 0 1025 1024" version="1.1" xmlns="http://www.w3.org/2000/svg" p-id="628" xmlns:xlink="http://www.w3.org/1999/xlink" width="200.1953125" height="200"><defs><style type="text/css"></style></defs><path d="M889.7536 843.3664c-3.3792-0.4096-0.512-5.3248-5.0176-6.9632v-1.9456l-0.9216-1.024c-1.6384-1.1264-3.6864-0.6144-5.8368-1.6384 0-1.6384-1.2288-2.6624-1.7408-4.8128-2.048 0-1.6384-2.4576-2.56-3.9936l-4.1984-4.3008c0.512-3.4816 3.072-7.8848 2.56-11.8784-0.512-1.6384-0.512-3.7888-2.048-4.8128 0.8192-7.0656 3.1744-13.824 6.7584-19.968 0-2.1504-0.512-5.5296 1.3312-8.192l3.1744-1.6384c1.024-1.1264 1.024-4.096 1.4336-6.656 1.1264-2.6624 5.5296-3.2768 6.5536-7.3728 2.1504-0.512 4.1984-1.024 5.8368-3.2768 1.7408 0 4.4032-1.6384 6.4512-1.6384 1.536 1.6384 2.048 3.7888 5.5296 4.3008 3.4816 13.4144 0 29.7984-0.6144 44.8512-3.8912 6.656-1.3312 16.1792-6.9632 22.6304-1.6384 3.4816-0.6144 7.7824-1.1264 11.776-0.512 2.6624-1.024 4.8128-3.8912 6.0416-1.536-0.512-2.56 1.1264-4.7104 0.512zM644.1984 950.6816c-0.9216-1.1264-3.4816-1.6384-6.0416-2.6624l-1.1264-1.6384c-1.8432-0.512-4.4032 0-6.4512-1.6384L628.9408 943.104c-0.512-1.8432 0-3.9936-1.536-6.0416l-1.3312-1.1264c0-3.2768-1.536-6.144-1.024-9.9328 0.512-1.6384 3.3792-2.6624 2.8672-5.632 4.608-3.7888 9.5232-8.2944 15.872-12.0832 3.8912 0 6.0416-1.024 9.6256-2.6624 2.3552 0 2.3552 1.6384 4.9152 2.1504l3.1744-0.512 1.536-2.7648-1.024-1.3312c-1.536-0.512-4.096-1.024-6.2464-2.1504-1.2288-1.6384-3.3792-2.6624-4.4032-4.8128 0-3.4816-2.6624-5.632-3.072-9.9328l-1.6384-1.6384c-0.512-1.9456-0.512-4.5056-1.024-6.5536l-0.7168-1.1264c-2.6624-0.512-4.7104-0.512-7.8848-1.1264-1.2288-1.3312-3.3792-1.8432-4.4032-3.9936-3.6864-1.1264-7.3728-1.6384-11.264-1.6384-3.584 0-2.56 3.2768-5.8368 4.3008-3.2768 0.8192-5.8368 0.8192-9.728 0.8192-4.096-1.4336-6.7584-2.9696-11.264-5.12-1.9456 0-5.4272 0.512-8.0896-1.1264-2.048-3.2768-5.632-5.632-8.4992-9.4208-1.024-0.6144-1.024-2.6624-2.048-5.12-0.512-3.7888 1.4336-8.0896 0.512-12.5952l-1.6384-1.024c-1.4336 0-4.4032 0.512-6.4512 0.512-6.144-2.1504-12.0832-5.0176-17.6128-8.3968-0.6144 2.6624-4.7104 3.9936-5.8368 7.3728-1.4336 2.048-5.4272 3.1744-7.0656 6.5536-2.6624 2.1504-7.4752 1.1264-11.1616 1.1264-1.6384 0.6144-2.1504 2.1504-5.0176 2.6624-7.4752-2.6624-15.872 0-23.8592-3.2768-1.7408 0-3.7888 0.6144-4.9152 1.6384l-1.536 3.1744c-2.1504 0-5.5296 0-8.0896-0.512-2.048 0.512-4.7104 0-6.5536 2.1504-1.024 7.68 3.3792 17.1008-1.536 24.3712-2.56-0.6144-3.072 2.048-6.2464 2.6624-1.8432 0-2.8672-0.6144-4.9152-1.024-2.6624-1.6384-1.6384-4.8128-5.5296-5.632-0.512-2.6624-1.4336-4.8128-2.56-8.0896l-1.1264-1.1264c-3.1744 0-2.048 3.7888-5.4272 4.8128-2.048 0-5.2224 0.6144-7.8848-1.1264-1.2288-1.6384-2.7648-3.1744-4.4032-4.5056-1.024-0.6144-1.024-3.7888-2.56-4.8128-1.024-0.6144-2.56-1.1264-3.072-3.7888-1.4336-1.1264-3.1744-1.7408-5.0176-1.8432-1.1264-1.1264-2.56-1.6384-4.096-3.2768-0.8192-1.6384-2.3552-2.1504-2.9696-5.12 0-3.2768 0.6144-5.8368 0.6144-9.9328 2.7648-1.1264 0.512-3.7888 2.3552-6.4512-1.3312-1.6384-3.4816-2.1504-6.0416-3.584-1.1264-2.6624-3.6864-3.6864-5.0176-7.4752 0-3.4816-0.512-6.2464-0.512-9.9328l-1.4336-3.4816c-4.8128-2.6624-11.776 0.6144-17.7152-1.1264l-2.1504-1.6384c-1.3312-7.0656-1.6384-14.336-0.9216-21.504 0.4096-2.9696 4.096-2.4576 5.12-5.632v-3.1744c2.3552-2.6624 4.4032-7.7824 9.1136-9.4208 1.8432-2.1504 3.9936-5.12 7.0656-6.7584 1.536-1.024 1.536-3.7888 1.536-6.7584 1.536-1.8432 2.6624-4.096 3.3792-6.4512-0.4096-3.4816 0.512-6.144 1.024-9.9328 1.6384-5.632 0-7.7824 0-10.9568l-2.048-2.9696-3.3792-1.024c-2.7648-5.8368-5.2224-11.776-7.5776-17.8176-1.536-0.512-2.6624 0-4.608-0.512-1.1264 1.6384-4.4032 5.12-5.5296 7.7824-3.1744 2.6624-8.6016 1.024-12.8 1.6384-6.0416-2.1504-9.5232-7.2704-14.5408-10.4448h-6.3488l-3.8912 2.6624c-2.1504 0-3.1744 1.8432-6.2464 2.3552h-1.8432l-3.1744 1.1264c-2.048 1.536-4.608 3.6864-8.0896 5.3248-2.56 3.9936-8.6016 3.4816-13.7216 5.5296l-1.024 1.6384c-1.8432 0.6144-2.3552 2.1504-5.0176 2.6624h-3.072c-1.6384 0.6144-2.1504 2.4576-5.0176 2.9696-6.3488 1.4336-12.9024 1.2288-19.2512-0.512l-3.6864-3.9936c-1.024-2.6624 0-4.8128-0.512-8.3968-2.56-3.072-5.632-5.5296-9.1136-7.4752-1.1264-2.4576-3.072-4.5056-5.5296-5.7344l-1.4336-3.1744-3.1744-1.9456-1.6384-3.1744c-2.7648-1.6384-7.4752-2.1504-11.3664-3.2768l-3.1744-2.9696h-9.5232c-2.1504 2.4576-5.5296 3.9936-7.0656 6.5536 0 2.7648-1.6384 4.7104-2.6624 7.8848-0.512 1.024-2.56 1.024-4.9152 2.1504-1.536 0-4.1984-1.1264-6.2464-1.6384-3.8912-4.3008 0.512-12.5952-3.8912-17.7152-2.56 0.6144-4.7104 2.6624-8.0896 2.1504-2.048-0.512-2.56-3.7888-5.12-4.8128h-8.0896l-5.0176-2.6624c-4.7104-1.1264-10.6496-4.096-15.872-5.12-2.1504 0-2.9696-1.6384-4.9152-2.6624-3.1744 0-7.5776 0-11.264-1.6384-1.024-1.9456-2.048-3.4816-3.072-6.7584-2.9696-0.6144-5.0176-2.1504-8.0896-3.2768-1.1264-1.4336-1.536-1.8432-2.56-3.9936 0-1.6384 0-2.6624-0.7168-4.8128-2.1504-1.024-4.7104-1.536-7.3728-2.9696l-1.7408-3.1744-3.1744-1.7408c-1.4336-1.4336-1.024-5.5296-1.4336-8.2944l-2.6624-2.6624-3.3792-2.1504c-2.048-1.3312-5.632-1.3312-8.0896-3.4816-6.0416-11.776-14.336-22.2208-24.3712-30.8224-1.4336 0-2.6624 0-4.9152 0.512-2.1504 1.6384-3.072 4.3008-6.2464 5.12-1.024-1.4336-3.8912-1.4336-6.0416-2.9696-2.56-5.0176-5.632-9.8304-9.0112-14.336-1.6384-2.1504-2.1504-6.144-4.3008-8.3968-3.4816-3.584-6.656-7.4752-9.5232-11.4688l-3.4816-0.6144c-1.4336-1.8432-2.56-5.0176-5.632-6.144-2.3552-9.9328 0-19.3536-1.3312-29.7984 1.3312-1.6384 0-4.608 1.3312-6.656 2.048-1.1264 3.072-2.6624 6.2464-3.7888h1.4336c1.8432 1.6384 2.4576 3.7888 5.5296 4.4032l1.6384-2.2528c0-9.4208-2.1504-17.2032-3.1744-24.3712 1.536-2.6624 3.1744-4.8128 4.7104-8.6016-4.3008-8.192-6.4512-17.3056-6.2464-26.624 0-3.9936-4.4032 0-5.8368-3.4816h-3.2768c-5.0176-2.6624-8.6016-8.6016-13.0048-13.7216-2.56-0.512-3.072-2.1504-6.2464-3.2768l-1.2288-1.1264c-2.56-7.7824 0-16.6912-2.56-24.8832-2.6624-1.1264-3.1744-5.12-5.8368-7.3728-3.2768-1.6384-4.9152-3.7888-8.6016-6.3488-0.512-2.2528-0.512-4.5056 0-6.7584 2.1504-2.1504 5.3248-2.6624 9.1136-4.608l1.024-1.024v-6.5536c1.024-2.9696 2.6624-4.5056 3.6864-8.3968 0-1.6384-0.512-4.5056-0.512-6.656-0.6144-1.6384-0.6144-3.7888-2.1504-4.9152-3.9936-1.8432-6.9632 0-11.264-2.4576-0.9216-1.024-1.7408-3.2768-3.8912-4.3008L0.2048 345.088l1.024-3.1744c1.6384-1.6384 3.3792-2.6624 5.0176-5.4272-1.4336-4.4032-1.2288-9.1136 0.512-13.4144 2.1504 0 2.6624-1.6384 4.7104-2.6624l0.512-1.6384c2.9696-1.6384 6.0416-2.9696 9.1136-6.656 4.4032-1.6384 8.0896-0.6144 13.0048-1.1264l3.072-1.6384c4.4032 0 8.0896 2.1504 12.8 1.6384 2.2528 0 4.4032 2.1504 5.4272 4.3008 2.6624 1.024 4.9152 0 8.0896 0.512 3.1744-1.6384 4.1984-3.6864 8.0896-4.8128l1.536-3.2768c0.512-1.3312 2.6624-1.3312 4.7104-2.4576 3.3792 0 8.0896 0.6144 10.9568-2.6624 9.6256-3.1744 18.7392 0 28.8768 1.1264 4.096-1.6384 9.1136-4.3008 14.2336-3.7888l2.9696-1.6384c2.048-4.608 6.144-9.9328 5.12-16.6912l3.1744-2.7648c1.8432 0 1.8432-2.4576 3.8912-3.9936h1.536l1.024-0.9216c0.512-11.5712 0.512-24.1664 1.024-36.6592 2.8672-1.024 0.512-3.6864 2.3552-6.3488 2.6624 0 2.6624-3.4816 5.632-4.096 7.5776 1.1264 17.2032-3.1744 23.6544 3.4816h12.8l1.4336-2.4576c0.6144-3.6864 0-6.9632 1.6384-11.4688l2.9696-2.1504 0.9216-3.1744c0.8192-1.6384 2.1504-3.072 3.6864-3.9936 1.024-2.1504 2.048-5.4272 3.8912-8.3968 2.6624-0.6144 1.536-3.7888 3.6864-5.8368 2.56-0.6144 3.072-2.9696 6.0416-4.096 4.096 0 6.7584 3.9936 12.1856 5.12 2.048 0.512 3.072 3.6864 6.4512 4.3008h1.536l5.7344 1.6384c3.3792 0.1024 6.656-0.7168 9.6256-2.1504 1.8432-0.4096 1.3312-4.8128 3.3792-6.0416-0.512-4.3008-1.024-10.4448 2.048-14.848 0.6144-1.1264 4.4032-0.512 4.4032-3.1744 1.6384-0.6144 4.1984 0 6.2464-0.6144 2.6624-0.7168 4.5056-1.3312 6.0416-3.4816l0.512-1.6384c1.4336-1.536 1.4336-3.2768 3.584-4.8128 7.5776-1.8432 16.6912-5.632 24.1664-2.3552 2.56 5.632-0.6144 13.9264 2.048 20.8896 2.048 1.4336 3.8912 2.9696 5.5296 5.7344 1.9456 0.512 3.584 2.048 4.608 5.0176 1.536 1.1264 3.3792 2.1504 6.5536 3.2768 1.4336 0.6144 2.56-1.1264 4.5056-0.6144 2.4576 1.1264 2.9696 4.4032 6.0416 4.8128 0.512 1.1264 0.512 3.4816 2.1504 4.608 0.512 4.3008 0 9.9328 1.536 14.6432l1.8432 1.1264c3.584 5.12 0.9216 12.3904 4.096 18.3296-1.4336 4.5056-2.048 9.9328-6.4512 13.9264-0.6144 4.4032-0.4096 8.9088 0.512 13.2096 3.8912 2.56 8.3968 3.9936 13.0048 3.9936l2.56 2.1504c6.5536 1.6384 14.0288 2.1504 19.2512 6.656h3.3792c4.7104 1.1264 7.3728 5.9392 12.8 8.0896 0 1.9456 1.024 4.5056 1.4336 6.7584 3.2768 0.512 3.2768 5.12 6.5536 6.656h1.536c1.4336 0.6144 3.6864 0.6144 4.608 2.1504 1.8432 2.6624 1.3312 7.7824 1.8432 11.5712l3.1744 4.5056c-0.512 2.1504 2.048 3.2768 1.6384 6.4512 0.9216 1.1264 1.4336 2.9696 3.2768 4.5056v3.2768c0 1.6384 2.1504 1.6384 2.6624 4.608 1.536 0.512 3.072 2.1504 5.7344 3.1744 2.8672-0.512 2.8672 2.1504 5.9392 2.6624 7.5776 0 14.5408 1.6384 22.3232 3.4816l2.8672 2.1504c12.6976-0.6144 23.8592 2.048 36.864 2.048 2.1504 0.6144 2.6624 2.6624 5.7344 3.2768h6.4512c2.1504 1.9456 4.5056 2.9696 6.5536 4.608 0 1.6384 1.024 2.6624 1.4336 4.8128 4.1984 1.8432 8.0896 0 12.8 2.9696 1.024 3.2768 4.9152 4.8128 7.0656 8.2944 6.4512 1.1264 12.1856 0 19.2512 0.6144 2.048 0.512 2.56 2.6624 6.0416 3.1744 5.632-1.6384 10.752-4.5056 15.2576-8.2944 1.8432 0 2.9696-0.6144 5.0176-1.1264l2.048-2.6624c2.6624-0.512 5.0176-1.024 8.0896-1.8432l2.6624-2.6624c8.0896-2.6624 16.6912-3.1744 24.1664-5.3248 4.096 0 9.5232 0 14.2336-1.1264 9.1136 0.6144 14.0288 0 20.48-1.3312 1.6384-1.1264 2.048-3.2768 3.1744-5.8368 2.4576-2.8672 5.12-5.5296 8.0896-7.8848 1.536 0 2.56 0 4.7104-0.6144 1.7408-1.536 1.7408-4.5056 3.3792-6.5536 1.6384-0.512 2.9696-1.7408 3.584-3.2768v-1.6384l-2.56-2.9696c-1.6384-3.1744-5.0176-6.3488-6.5536-11.4688 0.6144-4.4032 0-8.3968 0.6144-13.2096 1.6384-0.6144 3.3792-0.6144 3.8912-3.4816 1.6384-1.024 3.1744-2.1504 6.2464-3.2768 9.6256-1.6384 18.7392 4.608 28.8768 1.6384 2.3552 0 2.8672-1.6384 4.9152-2.6624l1.024-1.6384 3.1744-1.6384c3.3792-2.9696 6.0416-5.12 9.5232-9.4208 2.9696-1.1264 5.0176-1.1264 8.0896-2.4576l2.048-2.1504c2.8672 0 5.5296-1.4336 8.0896-3.1744 0.512-4.096 2.8672-6.7584 2.8672-11.5712l0.512-1.024c1.024-1.4336 2.4576-2.4576 4.1984-2.9696h4.9152c4.1984-2.1504 6.2464-7.0656 11.264-10.5472h8.0896l3.6864-2.6624c4.9152 0 10.0352-1.6384 16.1792-1.1264l2.048-2.1504c0-2.3552-1.6384-2.9696-2.6624-5.12-2.048 0-2.048-2.048-3.7888-3.6864-2.6624-0.6144-4.1984-3.4816-6.3488-6.2464l-3.2768-1.536-1.6384-3.4816c-2.048-1.1264-5.7344-0.512-8.0896 1.3312l-2.048 3.2768c-3.072 0-4.1984 2.6624-7.0656 4.3008-1.6384-0.6144-3.584 0-5.7344-1.6384l-2.8672-2.1504h-6.2464l-4.4032 3.2768c-2.56 1.2288-5.2224 1.8432-8.0896 1.9456l-3.1744-2.4576-1.024-1.1264c-0.512-1.6384-2.048-2.048-2.56-4.8128 0-5.632 1.536-12.3904 2.56-18.3296l1.6384-1.536c0.512-5.12 2.56-8.3968 3.8912-13.4144l1.6384-1.1264c0.512-5.4272 4.096-8.9088 6.144-13.7216l1.4336-1.1264c6.144-0.7168 12.1856 0 19.1488 0 1.6384-0.7168 3.6864-0.7168 4.8128-2.4576 2.56-3.7888 6.4512-6.9632 10.1376-10.9568 2.048-4.3008 1.024-8.3968 2.048-13.2096 2.3552-3.4816 3.3792-8.8064 5.9392-13.4144l1.6384-1.1264c1.536-1.1264 1.536-3.7888 1.536-6.4512 0.6144-0.6144 2.9696-2.9696 3.8912-3.9936l1.6384-3.1744c-1.024-3.2768 0.512-6.144-0.512-9.9328l-1.1264-1.024c-2.56 0-4.9152-0.6144-8.0896-0.6144l-3.584-4.608v-3.072c1.536-1.6384 2.56-3.9936 4.096-6.144l4.1984-0.6144c1.8432 0 2.9696-1.024 4.4032-2.6624 0.512-1.1264 0.512-3.1744 2.1504-4.608l3.072-0.512 0.7168-1.6384 1.1264-1.1264c3.072-1.1264 6.2464-1.6384 9.5232-1.6384 2.6624 0 3.1744-2.6624 6.2464-3.2768 2.4576 0 3.4816-1.8432 6.5536-2.4576 2.6624 0 6.5536 0.6144 9.5232-1.024 3.1744 1.6384 6.0416 0.512 9.728 1.024 3.7888 0.8192 7.168 2.6624 10.1376 5.12 1.6384 0 2.9696-1.1264 4.4032-2.6624 2.6624-1.4336 4.7104 0 8.0896-0.8192 1.024 2.4576 4.7104 1.9456 6.2464 3.9936 1.1264 0.512 1.1264 3.7888 2.9696 4.8128 2.56 2.4576 3.584 5.632 7.68 8.2944 0.512 2.1504 0 5.12 2.3552 6.7584l1.6384 1.1264c1.536 1.024 1.024 5.12 3.072 6.7584 2.8672 1.6384 4.8128 4.5056 5.4272 7.7824 1.1264 2.1504 2.6624 4.3008 4.1984 6.4512 1.6384 0 2.6624 1.1264 5.0176 1.536 0.512 1.3312 0.512 4.096 2.56 4.608 0.512 4.3008 2.048 8.2944 3.1744 13.2096 1.024 0 2.3552 2.1504 2.8672 3.9936l2.56 2.6624c6.5536 2.1504 15.0528 1.1264 22.3232 1.6384 2.7648 2.048 5.5296 3.1744 8.0896 5.632 2.048 0 5.4272-0.6144 8.0896 1.024 1.536 2.1504 3.6864 4.8128 7.0656 6.656 0.512 1.6384 1.024 2.6624 3.072 3.7888 1.024 1.6384 1.6384 3.2768 2.56 6.144l0.512 3.2768 1.8432 0.512c2.1504 0.6144 4.1984 3.2768 6.2464 4.8128 5.4272 0 9.6256-2.6624 15.5648-4.3008 2.56-2.1504 2.56-5.632 6.4512-6.7584 0-2.1504 2.6624-3.1744 2.1504-6.4512 2.048-2.9696 4.608-3.4816 8.6016-4.5056 2.56-3.7888 7.4752-6.7584 11.1616-9.9328h3.072l2.9696-2.1504h1.4336l3.1744 2.7648c0.512 1.536 0.512 2.6624 0 5.0176-1.4336 1.3312-2.56 2.9696-3.1744 4.8128 0 2.9696 1.024 5.12 0 8.2944 2.2528 4.096 2.56 8.9088 0.6144 13.2096l-1.6384 1.3312c-3.8912 15.872 0 34.2016-2.048 51.3024-0.7168 1.6384-1.3312 4.8128-2.9696 6.7584-1.4336 0.6144-2.048 1.6384-3.072 4.3008-6.4512-0.6144-13.0048-1.1264-19.2512 2.1504l-0.512 3.4816c-1.6384 2.1504-5.5296 2.6624-7.0656 5.8368 0 1.6384 1.536 4.608 1.536 6.656 1.1264 4.4032 5.5296 7.3728 5.5296 13.2096 4.3008 5.7344 2.6624 14.0288 4.8128 21.8112-2.048 2.1504-3.6864 5.3248-6.2464 8.0896-1.3312 4.608 0 8.8064-2.8672 13.4144l-1.024 1.1264c-1.536 0.6144-2.6624 0.6144-4.7104 0l-1.024-3.1744c-1.4336-1.1264-3.1744-1.7408-4.9152-1.9456-2.6624 2.9696-3.6864 7.3728-6.5536 11.8784-3.6864 3.6864-8.0896 7.4752-11.776 12.5952 0 2.1504 1.6384 2.6624 2.6624 4.8128 0 2.9696-1.6384 3.4816-2.56 6.2464l-3.1744 2.1504c-7.5776 1.8432-14.5408 0-22.6304-1.6384-1.6384 0.512-3.6864 0.512-4.7104 2.1504-1.1264 1.9456-2.1504 3.4816-3.4816 6.7584v1.6384l-2.56 2.9696c-0.512 1.6384-2.048 2.1504-2.56 4.8128v1.6384c0 3.4816-4.4032 4.5056-5.0176 8.3968l-1.024 3.2768c-4.7104 2.4576-3.1744 5.632-4.7104 7.7824-3.1744 1.536-5.632 4.096-7.0656 7.3728v1.6384c-6.0416 5.3248-13.824 8.0896-21.8112 7.7824-2.3552 1.1264-4.4032 1.536-6.4512 4.3008 0 1.8432-1.024 2.9696-1.6384 5.0176-1.024 1.6384-1.4336 2.6624-3.8912 4.8128 0 1.8432-1.024 2.9696-1.536 5.12l-3.1744 3.1744c-0.512 1.1264-0.512 3.4816-2.048 4.608h-1.7408c-1.1264 1.1264-1.6384 2.6624-3.1744 4.3008-4.1984 1.024-6.4512 3.9936-11.1616 3.9936-0.6144-2.4576-2.1504-2.9696-3.1744-6.144 1.024-1.536 1.6384-3.2768 1.536-5.12l2.1504-2.1504c4.1984-7.7824-1.024-17.7152 2.048-26.4192l2.56-1.8432c1.8432-1.1264 1.3312-4.8128 3.3792-6.4512 0-2.8672-0.512-5.632-1.4336-8.2944-2.9696-0.512-3.4816 2.1504-6.5536 2.6624-1.4336 0-2.56 0.512-4.9152 1.024-2.6624 2.1504-3.072 5.12-4.608 8.2944-0.512 1.6384-2.1504 2.1504-3.6864 4.608 0 1.6384-1.3312 2.6624-1.8432 4.9152-3.072 1.536-6.2464 3.6864-11.1616 5.632-3.3792 4.096-6.2464 8.4992-8.6016 13.2096 0.512 2.048-1.6384 2.048-1.024 4.8128-2.048 1.9456-4.1984 3.4816-6.5536 6.2464-2.048 0-3.072 1.536-6.2464 2.048-1.536 0-2.8672-0.512-5.0176-1.024-1.4336 0-3.6864 0.512-4.608 1.6384-2.8672 1.3312 0 3.9936-1.024 6.656 1.024 3.2768 3.1744 5.12 5.12 7.8848 3.1744 1.024 7.5776 0 11.264 0.512 4.7104 1.024 8.8064 3.7888 11.4688 7.7824v7.8848l-2.8672 1.6384 1.6384 3.1744c1.8432 0 2.7648 1.1264 4.9152 1.1264 3.072-2.6624 6.9632-5.8368 9.1136-10.4448l3.072-0.6144c4.4032-4.8128 11.264-10.4448 19.2512-9.9328l3.3792 4.3008c2.56 0 4.7104 1.4336 8.0896 2.9696l1.6384-1.024c2.4576 0 4.096 2.6624 8.0896 2.6624 1.4336-0.6144 2.56 0 4.608-0.6144 2.048 0 2.6624 1.6384 4.9152 2.6624l1.1264 3.4816c-4.7104 6.0416-10.752 10.8544-17.7152 14.336l-0.6144 1.6384c-1.536 1.6384-5.4272 0.6144-8.0896 2.1504l-1.024 1.3312c-1.024 2.1504-0.512 5.8368-2.56 8.0896l-1.8432 1.1264c-1.2288 2.048-2.2528 4.1984-3.072 6.4512-4.3008 3.4816-9.1136 6.2464-11.776 12.9024-1.6384 1.6384-3.9936 2.1504-4.4032 5.4272-1.6384 0.512-2.1504 2.6624-3.6864 5.0176 0 3.2768 3.072 2.6624 4.096 5.4272 2.3552 2.1504 6.5536 1.024 9.6256 1.6384 2.3552 2.9696 5.5296 1.024 7.0656 4.5056l3.072 1.6384c1.8432 1.6384 1.3312 5.632 1.8432 8.2944l3.6864 4.3008c0.512 7.7824 4.1984 15.0528 3.1744 23.3472l0.512 1.6384c2.2528 2.6624 6.4512 2.6624 9.1136 7.3728 2.1504 3.072 3.7888 6.3488 4.9152 9.9328l3.1744 3.2768c1.024 2.6624 3.3792 6.144 3.3792 9.9328 1.8432 2.7648 4.4032 5.0176 7.2704 6.656l1.8432 3.7888c-1.8432 3.4816-6.0416 5.12-9.1136 8.2944-1.8432 0.6144-2.3552 2.1504-4.9152 2.7648H869.5808l-1.8432 2.9696 1.2288 1.1264c3.1744 1.024 7.3728-0.6144 11.264 0 2.7648 3.584 6.144 6.656 10.1376 8.8064 1.024 6.4512 3.1744 12.5952 2.6624 19.968l-1.6384 4.8128c-2.56 4.096 0 9.9328 0 15.0528l-1.024 1.6384c-1.536 1.1264-3.8912 2.048-6.4512 3.2768-2.1504 2.4576-2.6624 6.144-5.8368 8.8064-0.7168 5.7344-3.7888 9.9328-5.8368 15.0528 0 3.2768-2.1504 4.3008-2.6624 8.3968 0 2.1504-1.8432 3.2768-2.3552 6.3488 0 1.6384 0 4.608-1.1264 6.7584-1.024 0.6144-3.072 0.6144-4.1984 2.1504 0 1.024 0 3.9936-1.9456 4.5056-1.3312 4.3008 0.512 8.3968 0.512 13.2096-1.3312 3.2768-3.3792 5.632-4.4032 9.9328l-1.1264 1.1264-1.536 0.512-1.024 1.024c-1.024 1.9456 0 2.9696-1.024 5.12l-2.8672 2.1504c-2.6624 1.6384-2.6624 7.168-5.2224 9.4208l-2.8672 2.1504c-2.56 1.024-4.608 0-7.7824 0.512l-2.3552 2.9696c-1.024 1.6384 0 4.3008 0 6.3488l-2.6624 1.9456c-3.6864 2.1504-4.608 7.0656-9.1136 10.4448-1.536 0-2.56 1.1264-4.608 1.6384l-1.3312 1.1264c-0.512 2.1504 2.7648 1.1264 3.3792 3.7888l-1.024 1.024h-5.0176c-1.024 3.4816-5.632 3.4816-7.5776 6.656 0 4.608-3.6864 7.3728-6.7584 9.4208H793.8048c-3.6864 4.5056-10.1376 6.144-16.384 5.7344l-4.4032 3.6864c-3.072 0.6144-5.7344-1.024-9.5232 1.1264l-1.6384 1.536c-4.1984 1.1264-7.5776 6.2464-12.8 7.7824l-1.7408-1.024c-2.1504 0.6144-3.1744 2.1504-6.3488 2.6624l-1.4336-0.6144c-0.6144-1.6384 0-2.6624-0.6144-4.8128l-2.8672-1.1264c-1.024 0.6144-1.024 2.6624-2.048 4.4032l-2.6624 2.048h-4.9152c-2.56 0.3072-4.9152 1.8432-6.2464 3.9936 0 2.1504-1.8432 2.1504-2.3552 4.9152-3.6864 2.9696-9.5232 1.6384-14.336 2.9696l-1.4336 2.6624c-1.536 1.024-3.2768 1.6384-5.0176 1.6384-3.072 0.6144-4.7104 3.7888-8.0896 5.632-3.072-0.3072-6.144-0.1024-9.1136 0.6144l-1.4336 1.6384c-1.6384 0.6144-2.1504 2.1504-4.8128 2.6624-1.8432 0-2.8672 0.6144-4.9152 1.1264l-1.6384 2.9696 1.6384 1.024c0.9216 1.6384 2.048 3.2768 3.072 6.4512 0 2.9696-2.6624 5.12-2.6624 8.3968-0.512 1.6384-4.096 1.024-5.12 3.4816v1.4336c6.144 2.8672 12.288 0 19.2512 2.3552l2.048 2.6624c0 1.6384 0 4.5056-1.024 6.656l-3.3792 1.1264c-2.048 1.6384-3.6864 4.3008-6.2464 7.2704-0.512 3.7888 1.6384 9.4208-1.024 13.2096l-3.3792 1.6384-1.536 3.4816c-2.6624 2.048-5.8368 3.2768-9.1136 3.7888-0.512 2.1504-3.6864 1.6384-4.608 3.2768l-10.752-0.1024z" fill="#bfbfbf" p-id="629"></path></svg>