<?xml version="1.0" standalone="no"?><!DOCTYPE svg PUBLIC "-//W3C//DTD SVG 1.1//EN" "http://www.w3.org/Graphics/SVG/1.1/DTD/svg11.dtd"><svg t="1501813728603" class="icon" style="" viewBox="0 0 1024 1024" version="1.1" xmlns="http://www.w3.org/2000/svg" p-id="4294" xmlns:xlink="http://www.w3.org/1999/xlink" width="200" height="200"><defs><style type="text/css"></style></defs><path d="M797.062919 376.241037l120.012328-55.933917C854.026282 185.267541 725.527676 87.021959 572.342832 66.286706l-17.916045 131.164318c107.816564 14.594393 198.259436 83.743286 242.636132 178.790013z" fill="#8a8a8a" p-id="4295" class="selected"></path><path d="M813.977147 421.266509c8.106632 27.90863 12.537548 57.380872 12.537548 87.904049 0 173.786045-140.880611 314.666656-314.666656 314.666656s-314.667679-140.880611-314.667679-314.666656 140.881634-314.666656 314.667679-314.666656V62.099337c-246.910483 0-447.071222 200.160739-447.071222 447.071221S264.936533 956.24178 511.847016 956.24178s447.071222-200.160739 447.071221-447.071222c0-43.366693-6.294356-85.240383-17.812691-124.891451l-127.128399 36.987402z" fill="#bfbfbf" p-id="4296"></path></svg>